<?xml version="1.0" encoding="utf-8"?>
<!-- Generator: Adobe Illustrator 27.5.0, SVG Export Plug-In . SVG Version: 6.00 Build 0)  -->
<svg version="1.1" id="Layer_1" xmlns="http://www.w3.org/2000/svg" xmlns:xlink="http://www.w3.org/1999/xlink" x="0px" y="0px"
	 viewBox="0 0 1761 362" style="enable-background:new 0 0 1761 362;" xml:space="preserve">
<style type="text/css">
	.st0{fill:#FFFFFF;}
</style>
<polygon class="st0" points="137.2,57.5 104.4,153.4 117.3,153.4 150.2,57.5 "/>
<polygon class="st0" points="172.5,57.5 139.6,153.4 158.6,153.4 192,57.5 "/>
<polygon class="st0" points="214.9,57.5 181.1,153.4 208.8,153.4 242.1,57.5 "/>
<polygon class="st0" points="242.1,154.5 275.7,57.5 434.8,57.5 401.7,154.5 "/>
<polygon class="st0" points="441.2,154.5 474.9,57.5 762,57.5 728.5,154.5 "/>
<polygon class="st0" points="768.2,154.5 802,57.5 1216.6,57.5 1182.6,154.5 "/>
<polygon class="st0" points="1247.5,66.5 1222.3,137.8 1234.9,156 1343,156 1366.5,136.5 1392.9,66.5 1372.5,66.5 1347.5,134.5 
	1243.5,134.5 1268.4,66.5 "/>
<polygon class="st0" points="1405.1,66.5 1379.5,138.5 1392.3,156 1500.1,156 1522.5,138.5 1549.7,66.5 1528.3,66.5 1502.5,135.5 
	1462.5,135.5 1488.3,66.5 1465.7,66.5 1440.5,135.5 1400.5,135.5 1425.7,66.5 "/>
<path class="st0" d="M1688.2,66.5h-108.3l-24.4,18l-25,73h20.7l5.3-16h103l-6,16h21.9l25.1-73L1688.2,66.5z M1667.8,117.5h-103.3
	l11-29h102L1667.8,117.5z"/>
<polygon class="st0" points="50.5,294.5 70.5,238.5 94.5,220.5 204.7,220.5 217.5,239.5 200.2,294.5 180.5,294.5 200.5,239.5 
	152.5,239.5 134,294.5 114.6,294.5 134,239.3 86.5,239.5 67.8,294.5 "/>
<path class="st0" d="M366.5,220.5H255.1l-25.6,19l-12,36.7l12,19.3h111.9l25.1-18l12-40L366.5,220.5z M347.6,276.5H236.5l12-37
	h111.3L347.6,276.5z"/>
<polygon class="st0" points="403.5,201.5 371.2,295.5 390.4,295.5 408.6,239.5 539.7,239.5 547.1,220.5 416,220.5 422.7,201.5 "/>
<path class="st0" d="M689.5,220.5H578.2l-25.7,18l-12,38l12,19h111l25-19l12.2-38L689.5,220.5z M670.6,276.5H558.5l13-37h111
	L670.6,276.5z"/>
<polygon class="st0" points="694.1,295.5 713,239.5 738.5,220.5 869.8,220.5 862.3,239.5 733.2,239.5 713.6,295.5 "/>
<polygon class="st0" points="855.3,295.5 862.3,276.5 991.3,276.5 1004.5,239.5 892.5,239.5 880.9,220.5 887.5,201.5 906.5,201.5 
	900.3,220.5 1011.8,220.5 1022.5,239.5 1010.5,277.5 986.6,295.5 "/>
<path class="st0" d="M1172,220.5h-110.5l-25,17l-26,76h19.7l6.3-18h110.9l24.1-18l12-38L1172,220.5z M1152.9,276.5h-111.4l13-37
	h110.7L1152.9,276.5z"/>
<path class="st0" d="M1334.4,220.5h-112.2l-24.8,19l-13,38l12,18h112.7l24.1-19l13.1-37L1334.4,220.5z M1314.3,276.5h-110.9l13.5-37
	h109.8L1314.3,276.5z"/>
<polygon class="st0" points="1338.2,295.5 1357.3,239.5 1384.5,220.5 1513.5,220.5 1506,239.5 1377.5,239.5 1357.7,295.5 "/>
<polygon class="st0" points="1499.8,295.5 1532.5,201.5 1552.4,201.5 1545.5,220.5 1675.8,220.5 1669.5,239.5 1537.5,239.5 
	1519.5,295.5 "/>
<g id="Layer_2_00000178206663007604684840000018190262814184567478_">
</g>
</svg>
