<?xml version="1.0" encoding="utf-8"?>
<!-- Generator: Adobe Illustrator 27.5.0, SVG Export Plug-In . SVG Version: 6.00 Build 0)  -->
<svg version="1.1" xmlns="http://www.w3.org/2000/svg" xmlns:xlink="http://www.w3.org/1999/xlink" x="0px" y="0px"
	 viewBox="0 0 1761 362" style="enable-background:new 0 0 1761 362;" xml:space="preserve">
<style type="text/css">
	.st0{stroke:#000000;stroke-miterlimit:10;}
	.st1{fill:#036600;}
	.st2{fill:#FFCC02;}
	.st3{fill:#000098;}
</style>
<g id="Layer_1">
	<polygon class="st0" points="131.5,53.5 95.5,158.5 109.65,158.5 145.65,53.5 	"/>
	<polygon class="st0" points="170.11,53.5 134.11,158.5 154.85,158.5 191.43,53.5 	"/>
	<polygon class="st0" points="216.48,53.5 179.5,158.5 209.83,158.5 246.22,53.5 	"/>
	<g>
		<polygon class="st1" points="242.05,154.5 275.67,57.5 434.84,57.5 401.71,154.5 		"/>
		<path d="M429.25,61.5l-30.4,89H247.67l30.85-89H429.25 M440.43,53.5H272.83l-36.39,105h168.13L440.43,53.5L440.43,53.5z"/>
	</g>
	<g>
		<polygon class="st2" points="441.23,154.5 474.85,57.5 761.95,57.5 728.45,154.5 		"/>
		<path d="M756.34,61.5l-30.74,89H446.85l30.85-89H756.34 M767.57,53.5H472l-36.39,105h295.7L767.57,53.5L767.57,53.5z"/>
	</g>
	<g>
		<polygon class="st3" points="768.24,154.5 801.97,57.5 1216.62,57.5 1182.64,154.5 		"/>
		<path d="M1210.98,61.5l-31.18,89H773.86l30.96-89H1210.98 M1222.26,53.5H799.13l-36.52,105h422.87L1222.26,53.5L1222.26,53.5z"/>
	</g>
	<polygon class="st0" points="1247.5,66.5 1222.26,137.78 1234.88,156.04 1343.04,156.04 1366.5,136.5 1392.87,66.5 1372.52,66.5 
		1347.5,134.5 1243.5,134.5 1268.43,66.5 	"/>
	<polygon class="st0" points="1405.13,66.5 1379.5,138.5 1392.32,156.04 1500.09,156.04 1522.5,138.5 1549.65,66.5 1528.26,66.5 
		1502.5,135.5 1462.5,135.5 1488.35,66.5 1465.65,66.5 1440.5,135.5 1400.5,135.5 1425.74,66.5 	"/>
	<path class="st0" d="M1688.17,66.5h-108.26l-24.41,18l-25,73h20.72l5.28-16h103l-6.02,16h21.91l25.11-73L1688.17,66.5z
		 M1667.83,117.5H1564.5l11-29h101.98L1667.83,117.5z"/>
	<polygon class="st0" points="50.5,294.5 70.5,238.5 94.5,220.5 204.74,220.5 217.5,239.5 200.17,294.5 180.48,294.5 200.5,239.5 
		152.5,239.5 134,294.5 114.61,294.5 134,239.26 86.5,239.5 67.78,294.5 	"/>
	<path class="st0" d="M366.48,220.5H255.09l-25.59,19.02l-12,36.65l12,19.33h111.93l25.07-18l12-40L366.48,220.5z M347.57,276.5
		H236.5l12-37h111.33L347.57,276.5z"/>
	<polygon class="st0" points="403.5,201.5 371.24,295.5 390.41,295.5 408.61,239.5 539.7,239.5 547.13,220.5 416.04,220.5 
		422.7,201.5 	"/>
	<path class="st0" d="M689.5,220.5H578.24l-25.74,18l-12,38l12,19h111.04l24.96-19l12.22-38L689.5,220.5z M670.59,276.5H558.5l13-37
		h111.02L670.59,276.5z"/>
	<polygon class="st0" points="694.07,295.5 713.04,239.5 738.48,220.5 869.76,220.5 862.33,239.5 733.2,239.5 713.63,295.5 	"/>
	<polygon class="st0" points="855.28,295.5 862.33,276.5 991.26,276.5 1004.5,239.5 892.46,239.5 880.91,220.5 887.5,201.5 
		906.54,201.5 900.28,220.5 1011.8,220.5 1022.5,239.5 1010.5,277.5 986.57,295.5 	"/>
	<path class="st0" d="M1172.04,220.5H1061.5l-25,17l-26,76h19.7l6.26-18h110.93l24.11-18l12-38L1172.04,220.5z M1152.87,276.5
		H1041.5l13-37h110.7L1152.87,276.5z"/>
	<path class="st0" d="M1334.43,220.5h-112.17l-24.78,19l-12.98,38l12,18h112.7l24.07-19l13.11-37L1334.43,220.5z M1314.28,276.5
		h-110.93l13.5-37h109.76L1314.28,276.5z"/>
	<polygon class="st0" points="1338.15,295.5 1357.33,239.5 1384.52,220.5 1513.46,220.5 1506.02,239.5 1377.48,239.5 1357.72,295.5 
			"/>
	<polygon class="st0" points="1499.76,295.5 1532.5,201.5 1552.39,201.5 1545.54,220.5 1675.85,220.5 1669.5,239.5 1537.5,239.5 
		1519.52,295.5 	"/>
</g>
<g id="Layer_2">
</g>
</svg>
